<?xml version="1.0" encoding="UTF-8"?>
<!DOCTYPE svg PUBLIC "-//W3C//DTD SVG 1.1//EN" "http://www.w3.org/Graphics/SVG/1.1/DTD/svg11.dtd">
<!-- Creator: CorelDRAW -->
<svg xmlns="http://www.w3.org/2000/svg" xml:space="preserve" width="200px" height="200px" version="1.1" style="shape-rendering:geometricPrecision; text-rendering:geometricPrecision; image-rendering:optimizeQuality; fill-rule:evenodd; clip-rule:evenodd"
viewBox="0 0 200 200"
 xmlns:xlink="http://www.w3.org/1999/xlink"
 xmlns:xodm="http://www.corel.com/coreldraw/odm/2003">
 <defs>
  <style type="text/css">
   <![CDATA[
    .fil1 {fill:#8A6F3E}
    .fil0 {fill:#C9A96E}
   ]]>
  </style>
 </defs>
 <g id="Capa_x0020_1">
  <metadata id="CorelCorpID_0Corel-Layer"/>
  <g id="_2015827333312">
   <path class="fil0" d="M44.507 40.365c4.175,-0.122 14.282,0.116 16.88,0.187 7.731,0.959 11.139,5.238 12.215,11.366 1,6.266 0.583,12.503 -2.115,16.961 -2.433,4.018 -9.779,6.802 -14.441,6.756 -3.545,0.099 -7.531,-0.805 -7.83,2.679 -0.201,2.765 0.08,3.322 -0.039,8.151 0.13,6.232 -9.569,5.965 -9.552,-0.569l-0.311 -38.01c-0.071,-4.531 1.311,-7.133 5.193,-7.521zm112.209 20.15c-0.708,1.169 -4.261,7.055 -4.571,8.114 -1.763,6.022 3.131,19.585 -4.823,19.938 -8.656,0.384 -3.517,-13.881 -5.337,-19.879l-9.123 -16.14c-8.621,-14.331 3.933,-13.198 4.929,-10.534 0.039,0.046 8.746,15.109 9.036,15.768 1.487,-1.487 7.933,-13.11 9.558,-15.825 2.197,-2.307 6.938,-1.943 8.075,1.475 1.026,3.082 -1.854,6.802 -3.146,9.071 -1.638,2.875 -3.07,5.49 -4.598,8.012zm-116.197 47.092c13.562,0.453 20.314,0 27.128,0 -0.883,-24.016 9.542,-26.085 15.82,-29.538 0.074,-8.144 -4.767,-32.901 12.522,-36.634 10.251,-3.604 18.994,2.237 22.073,9.092 2.92,6.499 1.724,23.137 1.697,31.55 -0.009,2.732 -0.012,4.472 -2.206,5.757 -2.191,1.285 -4.749,0.675 -6.132,-0.743 -2.281,-2.336 -1.363,-10.997 -1.35,-14.54l-16.037 -0.001 0.05 5.763c2.859,1.928 8.243,2.112 12.72,9.671 3.166,5.346 3.138,12.774 3.243,19.569 17.017,0.473 34.226,0.113 51.321,0.054 16.512,0 22.512,-11.033 22.512,-25.894 0,-4.022 0,-35.598 0.143,-39.978 -0.143,-10.99 -10.062,-21.115 -22.149,-21.115 -13.582,-0.266 -86.344,0.023 -113.866,0 -17.794,0.017 -26.768,7.521 -26.912,22.971 0.18,7.405 -0.33,25.05 0.144,34.385 -0.676,14.683 2.396,30.198 19.279,29.631z"/>
   <path class="fil1" d="M77.807 141.909c-2.062,-0.892 -3.787,-3.24 -5.37,-4.895 -3.694,-3.859 -10.202,-13.299 -19.482,-8.269 -3.759,2.038 -7.557,6.549 -5.969,13.148 0.723,3.008 7.358,11.678 9.863,14.92 11.343,15.092 13.704,22.66 32.585,28.803 6.658,0.174 46.362,0 51.999,0 12.682,0 23.173,-20.048 23.192,-32.977 -0.004,-7.344 -0.284,-17.146 -0.394,-24.753 -0.159,-10.881 -18.171,-12.019 -21.294,-1.212 -3.567,-9.745 -19.767,-11.71 -21.948,-0.714 -3.164,-11.198 -17.04,-12.148 -21.24,-0.251 -0.489,-3.524 -0.393,-10.775 -0.191,-14.461 0.261,-4.808 0.144,-7.755 -0.035,-12.627 -0.304,-8.282 -8.513,-14.501 -16.241,-9.735 -7.355,4.536 -5.467,12.839 -5.46,23.314l-0.015 29.709z"/>
   <path class="fil0" d="M50.456 65.528c2.704,0.015 7.32,0.471 9.562,-0.614 2.593,-1.085 4.881,-3.737 4.936,-7.251 0.532,-9.554 -8.064,-8.204 -14.834,-8.239 0.07,2.58 0.133,13.564 0.336,16.104z"/>
   <path class="fil0" d="M93.944 63.205l15.67 0.121c0.494,-3.186 0.412,-6.674 -1.101,-9.074 -3.791,-6.017 -16.531,-5.666 -14.569,8.953z"/>
  </g>
 </g>
</svg>
