<?xml version="1.0" encoding="UTF-8"?>
<!DOCTYPE svg PUBLIC "-//W3C//DTD SVG 1.1//EN" "http://www.w3.org/Graphics/SVG/1.1/DTD/svg11.dtd">
<!-- Creator: CorelDRAW -->
<svg xmlns="http://www.w3.org/2000/svg" xml:space="preserve" width="200px" height="200px" version="1.1" style="shape-rendering:geometricPrecision; text-rendering:geometricPrecision; image-rendering:optimizeQuality; fill-rule:evenodd; clip-rule:evenodd"
viewBox="0 0 200 200"
 xmlns:xlink="http://www.w3.org/1999/xlink"
 xmlns:xodm="http://www.corel.com/coreldraw/odm/2003">
 <defs>
  <style type="text/css">
   <![CDATA[
    .str1 {stroke:#8A6F3E;stroke-width:2;stroke-miterlimit:22.9256}
    .str0 {stroke:#C9A96E;stroke-width:5;stroke-miterlimit:22.9256}
    .fil1 {fill:none}
    .fil2 {fill:#8A6F3E}
    .fil0 {fill:#FEFEFE}
   ]]>
  </style>
 </defs>
 <g id="Capa_x0020_1">
  <metadata id="CorelCorpID_0Corel-Layer"/>
  <g id="_2015835003312">
   <path class="fil0" d="M84.045 127.958c0.737,-0.805 0.566,-0.459 0.917,-1.561l0.05 -13.444c-4.189,0.408 -12.994,2.838 -17.368,4.018 -3.219,0.868 -15.69,3.054 -16.172,4.789l0.035 13.687c5.158,-0.743 11.426,-2.598 16.532,-3.855l16.006 -3.634z"/>
   <path class="fil1 str0" d="M12.203 110.586c3.314,2.781 8.01,12.296 25.559,14.16 19.804,2.859 51.467,-8.774 66.031,-12.03 18.78,-5.434 47.893,-6.173 61.531,-2.849 13.187,3.5 23.611,8.788 23.86,21.649"/>
   <path class="fil1 str0" d="M11.629 91.885c3.314,2.781 8.01,12.296 25.559,14.16 19.804,2.858 51.467,-8.775 66.031,-12.03 18.78,-5.434 47.893,-6.173 61.531,-2.849 13.187,3.5 23.611,8.788 23.86,21.649"/>
   <path class="fil1 str0" d="M80.163 64.098c0.296,-1.532 -1.458,-12.971 -30.929,-17.231 -37.121,-3.823 -56.36,30.325 -10.598,42.343 19.803,2.859 51.467,-8.775 66.03,-12.03 18.78,-5.435 47.893,-6.173 61.531,-2.849 13.187,3.5 23.611,8.787 23.86,21.649"/>
   <path class="fil1 str0" d="M12.501 127.369c3.314,2.781 8.01,12.296 25.56,14.161 19.803,2.858 51.466,-8.775 66.03,-12.03 18.78,-5.435 47.893,-6.174 61.531,-2.85 28.218,9.159 34.309,33.171 6.255,39.482 -33.359,7.504 -75.109,-10.56 -47.369,-28.359 12.597,-5.005 29.074,-1.247 33.247,6.335"/>
   <path class="fil2 str1" d="M55.323 156.186c-3.619,10.63 -18.206,12.803 -15.896,2.278 0.82,-3.732 4.43,-7.229 7.769,-8.45 5.223,-1.91 9.919,0.907 8.127,6.172zm39.862 -13.063c-3.095,11.023 -18.852,13.312 -15.95,2.316 2.668,-10.108 18.695,-12.091 15.95,-2.316zm67.554 -70.653c-1.566,-6.581 -5.73,-5.301 -13.851,-9.232 -12.07,-5.841 -10.358,-5.13 -10.115,-20.25 2.39,1.114 3.455,2.3 5.663,3.711 8.758,5.597 20.686,9.187 20.901,15.416 0.118,3.442 -0.06,5.593 -2.598,10.355zm-67.167 35.925c-11.346,2.52 -25.586,5.911 -36.417,8.224l0.013 -14.861c0.485,-1.726 32.541,-9.071 36.446,-9.438l-0.042 16.075zm-0.012 3.399c0.007,-1.889 0.007,-2.155 0.012,-3.399 1.376,0.189 1.744,0.209 3.219,0.385 0.178,-7.202 0.235,-12.979 -0.018,-20.238 -2.89,0.289 -39.409,8.48 -42.651,9.993 -0.643,16.109 -0.384,32.629 -0.424,48.765 -14.522,-4.65 -24.117,9.957 -18.447,17.958 4.291,6.056 12.913,2.738 16.946,-1.253 5.695,-5.633 4.798,-9.999 4.828,-19.355 0.025,-7.636 -0.477,-17.293 0.218,-24.685 10.114,-2.9 26.869,-6.689 36.317,-8.171zm26.057 -3.028c0.237,-0.208 4.312,-3.973 6.932,-4.135 15.601,-0.964 0.201,21.924 -8.395,14.801 -3.47,-3.017 0.107,-8.426 1.463,-10.666zm0.897 -4.806c-0.504,2.585 -0.589,3.049 -0.897,4.806 0.028,-0.244 0.688,-3.893 0.897,-4.806zm12.704 -1.44c-2.663,-1.359 -3.562,-1.418 -7.057,-0.903 -1.663,0.245 -3.67,1.142 -5.647,2.343 -5.814,4.011 -10.583,13.459 -3.796,18.487 7.536,5.583 19.755,-3.719 20.481,-14.205 -0.33,-13.496 -0.275,-35.524 -0.509,-46.672l12.285 6.236c19.67,6.387 0.838,12.814 0.42,26.568 -0.064,2.102 2.275,0.968 2.561,-1.802 -2.081,-9.507 33.205,-26.18 3.933,-41.848 -5.136,-2.749 -12.33,-6.733 -16.587,-10.332 -1.68,-1.42 -5.572,-6.292 -5.883,0.538 -0.868,19.069 -0.038,41.967 -0.201,61.59zm-36.427 6.26c-1.174,-0.134 -2.046,-0.223 -3.219,-0.385l-0.107 26.342c-12.725,-5.131 -24.033,9.931 -18.623,17.628 6.5,9.249 21.018,0.145 21.89,-11.264 0.037,-10.77 0.033,-21.545 0.059,-32.321z"/>
  </g>
 </g>
</svg>
