<?xml version="1.0" encoding="UTF-8"?>
<!DOCTYPE svg PUBLIC "-//W3C//DTD SVG 1.1//EN" "http://www.w3.org/Graphics/SVG/1.1/DTD/svg11.dtd">
<!-- Creator: CorelDRAW -->
<svg xmlns="http://www.w3.org/2000/svg" xml:space="preserve" width="52.9166mm" height="52.9166mm" version="1.1" style="shape-rendering:geometricPrecision; text-rendering:geometricPrecision; image-rendering:optimizeQuality; fill-rule:evenodd; clip-rule:evenodd"
viewBox="0 0 5291.66 5291.66"
 xmlns:xlink="http://www.w3.org/1999/xlink"
 xmlns:xodm="http://www.corel.com/coreldraw/odm/2003">
 <defs>
  <style type="text/css">
   <![CDATA[
    .fil1 {fill:#8A6F3E}
    .fil0 {fill:#C9A96E}
   ]]>
  </style>
 </defs>
 <g id="Capa_x0020_1">
  <metadata id="CorelCorpID_0Corel-Layer"/>
  <g id="_1709905719392">
   <path class="fil0" d="M2638.25 4297.9c-5.3,84.35 -0.09,171.41 -98.18,163.55 -88.09,-7.05 -76.36,-88.12 -82.52,-167.96l-170.93 5.76c-7.44,135.49 -10.06,188.96 -153.87,150.31 -22.3,-61.97 -17.24,-76.71 -25.01,-156.11l-167.57 0.53c-9.49,87.73 5.53,168.63 -91.95,168.68 -99.38,0.06 -83.97,-82.95 -92.7,-169.38l-164.69 0.93c-7.43,89.11 6.04,172.22 -94.78,168.54 -90.29,-3.31 -82.61,-79.4 -86.85,-163.11 -82.15,-15.5 -176.03,-0.84 -171.33,-99.91 4.3,-90.82 89.06,-74.08 170.56,-87.87 6.38,-85.11 0.26,-177.29 98.88,-166.5 83.42,9.12 75.26,94.2 85.07,171.66l161.21 0.28c13.44,-86.35 -8.04,-170.54 94.64,-170.52 102.85,0.02 79.42,82.44 94.02,170.35l163.65 -0.09c11.75,-78.31 -1.55,-173.54 94.19,-172.24 93.94,1.29 80.4,82.29 87.37,170.92l168.74 -0.55c9.68,-80.57 -0.93,-174.12 96.17,-169.77 86.5,3.88 79.04,85.44 87.17,170.99l167.13 -3.01c7.94,-83.02 2.33,-175.76 97.51,-167.78 88.26,7.41 75.97,89.4 85.6,169.57 84.43,4.91 171.64,0.22 166.15,98.21 -5.07,90.49 -93.05,77.68 -167.53,82.5 -6.41,80.89 3.59,170.69 -95.91,165.86 -86.42,-4.19 -79.7,-83.24 -84.76,-167.29l-169.48 3.45zm-457.77 -876.56c-625.62,54.96 -915.32,215.55 -1339.55,552.18 -66.72,52.95 -105.16,100.69 -168.39,154.04 -189.92,160.28 -196.21,158.83 232.55,461.54 123.48,87.18 246.57,157.09 403.32,225.93 594.22,260.95 1516.16,241.93 2101.32,-68.07 128.64,-68.14 452.03,-288.83 564.39,-387.17 88.12,-77.12 42.56,-134.78 -24.08,-191.11 -231.28,-195.5 -388.87,-374.85 -723.55,-535.26 -278.81,-133.63 -685.61,-243.74 -1046.01,-212.08z"/>
   <path class="fil1" d="M831.11 626.49l1092.02 1084.26c60.81,-24.06 239.05,-218.18 287.68,-272.42 -218.18,-285.1 -354.15,-459.65 -434.12,-853.34 -25.65,-126.31 -24.44,-272.69 -52.92,-387.6 -182.22,23.4 -359.18,78.95 -504.7,149 -121.89,58.67 -341.39,179.06 -387.96,280.1z"/>
   <path class="fil1" d="M298.95 1635.4c318.27,74.97 480.52,-16.24 990.45,297.8 96.22,59.26 197.01,157.17 251.84,177.31l261.13 -261.2 -1100.09 -1110.87c-144.65,150.19 -424.9,591.95 -403.33,896.96z"/>
   <path class="fil1" d="M697.15 2942.86c51.42,-27.88 681.22,-658.99 709.18,-711.29 -85.17,-43.53 -179.59,-170.01 -478.77,-289.51 -210.84,-84.2 -397.71,-113.77 -651.36,-128.63 6.06,486.74 175.1,871.26 420.95,1129.43z"/>
   <path class="fil1" d="M2339.31 1308.01l701.81 -698.35c-239.86,-247.76 -669.41,-422.61 -1135.47,-424.44 8.91,233.43 50.23,456.74 129.16,648.8 63.81,155.27 201.54,396.32 304.5,473.99z"/>
   <path class="fil0" d="M2519.84 2065.12l33.94 30.71c48.75,35.71 57.62,24.14 89.31,95.15 160.22,359.03 53.82,337.38 314.41,437.62 225.67,86.81 162.99,96.16 347.88,-27.15 353.76,-235.93 292.15,-119.25 292.14,-505.63 0,-52.39 -217.83,-185.74 -269.95,-221 -93.54,-63.28 -209.62,-113.95 -257.64,-218.32 -1.27,-2.76 -3.66,-8.28 -4.67,-10.53 -1.01,-2.24 -2.64,-7.23 -4.63,-10.51 -188.16,74.57 -460.46,298.83 -540.79,429.66z"/>
   <path class="fil1" d="M832.44 3078.05c104.09,116.41 295.04,228.88 481.03,305 141.71,57.99 282.56,-54.31 621.73,-111.8 15.17,-133.2 -84.36,-395.94 -133.9,-499.19 -82.51,-171.92 -161.48,-272.74 -259.13,-397.84 -65.13,29.19 -291.34,275.23 -360.49,344.27 -79.92,79.8 -302.98,283.72 -349.24,359.56z"/>
   <path class="fil0" d="M4136.14 3400.4c48.57,30.54 99.25,90.32 140.79,133.94 77.79,81.65 98.85,57.62 241.69,57.19 92.17,-0.27 184.39,0.44 276.55,-0.15 157.74,-1.01 124.58,-16.46 212.5,67.53 87.83,-215.42 143.42,-337.32 160.21,-614.89 -134.63,45.85 -153.66,-3.66 -345.47,-131.6 -313.73,-209.28 -221.88,-206.53 -481.54,-73.79 -56.23,28.75 -41.81,10.51 -64.23,58.24l-140.5 503.53z"/>
   <path class="fil0" d="M3775.78 2080.47c-0.1,383.02 -35.78,304.78 138.17,420.51 373.43,248.46 247.93,209.42 487.28,106.69 123.27,-52.9 89.33,-61.76 168.91,-337.58 19.39,-67.19 36.69,-126.85 54.32,-191.07 8.58,-31.23 15.05,-64.93 30.51,-92.01 24.5,-42.91 41.54,-37.29 69.37,-81.16 -113.44,-64.51 -113,-117.08 -405.23,-267.22l-24.02 35.34c-36.16,62.07 -17.05,39.33 -91.94,90.75 -84.61,58.09 -397.57,261.92 -427.37,315.75z"/>
   <polygon class="fil1" points="3262.61,2842.84 3398.93,3329.45 3966.13,3330.33 4106.92,2849.39 3690.72,2564.21 "/>
   <path class="fil1" d="M2464.84 1435.12c43.79,53.45 177.03,161.32 258.15,189.41 226.96,-136.75 453.68,-268.89 789.09,-293.85 -22.23,-102.13 -93.9,-239.53 -143.68,-325.14 -28.53,-49.07 -55.15,-92.19 -90.13,-140.27 -18.91,-26 -23.69,-29.56 -47.76,-59.33 -34.75,-42.97 -18.83,-38.25 -62.45,-63.75l-703.22 692.93z"/>
   <path class="fil0" d="M2210.53 3136.03l11.18 104.76c323.03,36.9 437.25,-1.37 800.78,121.23 76.85,25.92 155.2,65.4 223.37,81.89 -24.59,-146.58 -89.86,-321.11 -129.02,-467.85 -36.87,-138.17 -21.19,-102.78 -152.77,-154.48 -79.82,-31.37 -147.71,-68.37 -231.6,-83.78 -43.22,71.77 -165.67,174.75 -231.75,240.81 -114.98,114.95 -142.67,201.35 -290.19,157.42z"/>
   <path class="fil1" d="M4184.04 4378.9c306.25,-108.03 432.4,-230.34 625.31,-426.98 14.03,-14.3 66.54,-71.22 73.23,-97.09 33.55,-129.73 -218.73,-87.1 -456.04,-86.15l-79.79 0.63c-26.14,76.19 -94.73,199.1 -134.6,276.19 -77.8,150.43 -6.65,137.01 -28.11,333.4z"/>
   <path class="fil1" d="M1665.18 2234.45c21.19,52.16 185.9,229 287.69,447.04 26.17,56.06 42.52,110.1 74.22,162.29 99.31,-519.44 92.97,-324.91 169.64,-609.84 -48.91,-52.17 -217.69,-234.59 -274.93,-261.29l-256.62 261.8z"/>
   <path class="fil1" d="M4665.38 2605.94c69.16,23.01 281.78,178.44 367.29,235.59 62.38,41.69 61.53,31.46 129.93,6.31 -10.58,-256.35 -290.68,-1025.63 -393.17,-638.2 -31.19,117.93 -92.85,293.52 -104.05,396.3z"/>
   <path class="fil1" d="M3694.14 1909.21c101.79,-88.63 244.56,-169.82 356.75,-250.8 308.01,-222.3 -1026.04,-221.92 -735.43,-2.43 59.59,45.01 330.35,235.39 378.68,253.23z"/>
   <path class="fil0" d="M4027.51 4000.15c59.27,-52.77 117.68,-209.6 157.94,-292.86 -30.47,-49.45 -81.63,-89.32 -120.44,-129.57 -61.52,-63.81 -51.09,-73.45 -174.97,-72.34 -167.62,1.48 -342.78,-4.96 -509.12,2.92l646.59 491.85z"/>
   <path class="fil1" d="M2208.51 2932.59c87.97,42.09 62.89,31.89 215.77,-122.6 59.01,-59.64 131.49,-140.99 192.5,-188.09 -12.28,-71.37 -52.46,-152.25 -78.7,-218.1 -34.97,-87.75 -33.31,-146.13 -122.04,-176.27 -111.17,103.08 -233.39,549.28 -207.53,705.06z"/>
   <path class="fil1" d="M2062.64 1853.84c60.13,47.67 166.11,183.43 230.62,210.87l275.96 -324.51c-81.9,-40.75 -164.08,-134.68 -229.91,-166.49 -51.55,25.28 -252.04,226.87 -276.67,280.13z"/>
  </g>
 </g>
</svg>
